<svg xmlns="http://www.w3.org/2000/svg" width="500" height="500" viewBox="0 0 500 500" version="1.1"><path d="M 249.126 140.294 C 248.515 141.831, 247.739 144.193, 247.400 145.544 C 246.830 147.813, 246.317 148.003, 240.642 148.033 C 233.861 148.070, 233.831 147.858, 241.409 153.500 L 244.095 155.500 242.435 160.304 C 241.522 162.947, 240.970 165.303, 241.208 165.541 C 241.446 165.779, 243.547 164.572, 245.878 162.859 L 250.114 159.743 254.471 162.871 C 256.867 164.592, 259.063 166, 259.353 166 C 259.642 166, 259.078 163.645, 258.100 160.768 L 256.321 155.535 260.911 152.018 L 265.500 148.500 259.581 148 L 253.662 147.500 251.948 142.500 L 250.235 137.500 249.126 140.294 M 210.056 148.179 L 210 153.858 204.500 155.457 C 201.475 156.336, 199 157.232, 199 157.448 C 199 157.663, 201.250 158.587, 204 159.500 L 209 161.161 209.043 166.830 L 209.085 172.500 212.793 168.328 L 216.500 164.156 221.441 166.054 C 224.158 167.098, 226.494 167.839, 226.631 167.702 C 226.768 167.565, 225.601 165.398, 224.037 162.886 L 221.195 158.319 224.609 154.004 C 226.487 151.631, 227.884 149.551, 227.715 149.381 C 227.545 149.212, 225.178 149.747, 222.453 150.571 C 216.971 152.229, 217.838 152.671, 212.306 145.389 L 210.111 142.500 210.056 148.179 M 287.209 146.073 C 286.014 147.958, 284.642 150.099, 284.159 150.831 C 283.434 151.931, 282.392 151.897, 278.141 150.635 C 275.314 149.795, 273 149.438, 273 149.842 C 273 150.245, 274.332 152.134, 275.959 154.038 C 277.587 155.942, 278.937 157.861, 278.959 158.303 C 278.982 158.745, 277.875 160.762, 276.500 162.785 C 275.125 164.809, 274 166.808, 274 167.228 C 274 167.648, 276.260 167.133, 279.023 166.083 L 284.046 164.175 287.190 168.087 C 288.920 170.239, 290.677 172, 291.095 172 C 291.513 172, 291.611 169.633, 291.313 166.739 L 290.770 161.478 295.958 159.612 C 301.654 157.564, 301.560 156.923, 295.308 155.146 C 291.294 154.005, 291.089 153.753, 290.479 149.227 C 290.129 146.627, 289.739 144.083, 289.612 143.573 C 289.486 143.063, 288.404 144.188, 287.209 146.073 M 174.024 159.547 C 174.037 160.621, 174.443 163.203, 174.927 165.285 L 175.805 169.071 170.697 171.988 C 165.165 175.148, 165.491 175.747, 173 176.218 L 177.500 176.500 178.391 181.750 C 178.880 184.637, 179.607 187, 180.005 187 C 180.403 187, 181.502 184.975, 182.447 182.500 L 184.165 178 189.583 178 C 192.562 178, 195 177.710, 195 177.356 C 195 177.002, 193.390 175.314, 191.421 173.606 L 187.842 170.500 189.946 165.608 C 191.103 162.918, 191.856 160.523, 191.620 160.286 C 191.383 160.049, 189.355 161.013, 187.114 162.428 C 184.873 163.843, 182.712 165, 182.312 165 C 181.912 165, 179.878 163.334, 177.792 161.297 C 174.642 158.221, 174.004 157.925, 174.024 159.547 M 322.225 161.657 L 317.983 165.180 313.563 162.590 C 311.133 161.166, 308.911 160, 308.627 160 C 308.343 160, 309.055 162.273, 310.210 165.050 L 312.308 170.100 308.404 174.163 L 304.500 178.226 310.127 177.791 L 315.753 177.356 317.997 182.428 L 320.240 187.500 321.212 184 C 323.353 176.291, 323.615 176, 328.420 176 C 330.874 176, 333.124 175.608, 333.421 175.128 C 333.717 174.649, 331.944 173.187, 329.480 171.880 C 324.691 169.339, 324.424 168.615, 326.078 162.656 C 326.665 160.542, 326.993 158.660, 326.806 158.473 C 326.619 158.286, 324.558 159.719, 322.225 161.657 M 155.877 183.590 L 152.287 187.179 147.144 184.573 C 144.315 183.139, 142 182.214, 142 182.516 C 142 182.819, 143.100 185.237, 144.445 187.891 L 146.889 192.715 143.445 196.054 C 139.358 200.014, 139.102 201.225, 142.500 200.519 C 143.875 200.234, 146.114 199.769, 147.476 199.487 C 149.642 199.038, 150.293 199.635, 152.657 204.237 L 155.361 209.500 156.130 206.500 C 156.553 204.850, 157.152 202.277, 157.461 200.783 C 157.955 198.387, 158.611 197.988, 163.011 197.404 C 165.755 197.040, 168 196.344, 168 195.858 C 168 195.372, 165.975 193.990, 163.500 192.788 C 158.644 190.429, 158.692 190.543, 159.909 184.250 C 160.361 181.912, 160.447 180, 160.099 180 C 159.751 180, 157.851 181.615, 155.877 183.590 M 240.022 182.300 C 239.972 188.607, 244.932 194.011, 255.702 199.384 C 263.423 203.236, 270 208.369, 270 210.545 C 270 211.280, 270.515 212.200, 271.145 212.590 C 271.939 213.080, 272.130 212.462, 271.769 210.573 C 270.944 206.254, 272.982 209.112, 275.042 215.162 L 276.860 220.500 277 216 C 277.108 212.531, 277.337 211.958, 278 213.500 C 278.473 214.600, 278.891 216.703, 278.930 218.172 C 278.987 220.357, 279.685 221.064, 282.750 222.043 C 288.431 223.859, 288.812 224.919, 283.337 223.677 C 274.885 221.758, 267.969 222.296, 262.445 225.302 C 257.509 227.988, 257.506 227.988, 260.500 225.499 C 262.150 224.127, 264.962 222.519, 266.750 221.925 C 269.652 220.961, 270 220.441, 270 217.070 C 270 211.280, 263.390 203.039, 258.292 202.473 C 254.562 202.059, 241.199 195.069, 239.144 192.456 C 237.343 190.167, 237.001 190.032, 237.007 191.615 C 237.014 193.826, 239.848 198.380, 242.580 200.571 C 244.424 202.049, 244.413 202.069, 242.320 201.057 C 239.371 199.633, 236.495 195.343, 235.242 190.500 L 234.207 186.500 234.103 192.290 C 233.968 199.865, 236.572 205.031, 242.238 208.426 C 244.582 209.832, 245.886 210.985, 245.136 210.991 C 243.325 211.003, 236 206.854, 236 205.816 C 236 205.367, 235.550 205, 235 205 C 233.239 205, 233.930 211.150, 236.082 214.632 C 238.738 218.929, 237.986 218.886, 233.084 214.457 C 230.251 211.898, 228.810 209.538, 227.892 205.955 C 227.081 202.791, 226.333 201.449, 225.826 202.248 C 224.565 204.233, 224.838 198.183, 226.122 195.684 C 226.739 194.483, 228.399 192.262, 229.809 190.750 C 233.505 186.787, 231.707 187.367, 226.938 191.675 C 222.502 195.682, 220 199.749, 220 202.950 C 220 204.078, 219.541 205, 218.981 205 C 218.072 205, 218.311 202.253, 219.572 198.198 C 219.799 197.469, 219.506 197.187, 218.906 197.558 C 216.179 199.243, 221.459 191.725, 225.002 188.878 C 227.200 187.111, 228.834 185.500, 228.631 185.298 C 228.429 185.095, 225.701 185.888, 222.570 187.060 C 213.195 190.567, 205.971 199.752, 206.098 208 L 206.152 211.500 207.500 208 L 208.848 204.500 208.946 209 C 209.084 215.331, 211.921 220.880, 217.555 225.839 C 221.750 229.532, 222.003 229.953, 219.448 228.995 C 209.973 225.439, 205.044 218.455, 204.937 208.434 C 204.882 203.356, 204.723 202.861, 203.832 205 C 203.260 206.375, 202.774 209.761, 202.753 212.523 C 202.687 221.046, 206.944 226.721, 215.723 229.812 C 220.668 231.554, 220.755 231.653, 219.429 234.048 C 218.682 235.397, 218.069 237.400, 218.066 238.500 L 218.061 240.500 219.167 238.500 C 221.328 234.593, 224.383 232, 226.824 232 C 229.124 232, 229.022 231.798, 225.400 229.167 C 218.656 224.267, 218.324 222.796, 224.706 226.088 C 229.043 228.325, 231.684 229.055, 234.565 228.816 L 238.500 228.489 233.220 226.108 C 226.912 223.264, 226.814 222.474, 233.039 224.643 C 236.150 225.727, 239.845 226.066, 245.250 225.764 C 252.375 225.366, 254.549 225.925, 252 227.500 C 251.450 227.840, 251 228.597, 251 229.181 C 251 229.808, 251.679 229.681, 252.655 228.872 C 254.177 227.610, 254.175 227.759, 252.629 230.750 L 250.949 234 258.724 234.175 C 263.400 234.280, 264.806 234.502, 262.250 234.732 C 259.913 234.943, 258 235.513, 258 236 C 258 236.487, 258.974 238.536, 260.164 240.553 L 262.328 244.220 250.414 243.603 C 243.861 243.263, 235.732 242.726, 232.349 242.409 C 227.978 241.999, 225.401 242.250, 223.444 243.275 C 221.302 244.398, 219.923 244.482, 217.230 243.656 C 214.249 242.741, 213.579 242.856, 212.385 244.488 C 209.361 248.623, 211.819 257, 216.057 257 C 217.229 257, 218.013 257.695, 218.032 258.750 C 218.094 262.183, 221 256.857, 221 253.309 C 221 249.233, 222.541 248.956, 223.328 252.889 C 224.072 256.612, 227.918 261.054, 230.563 261.247 C 235.945 261.639, 242 256.265, 242 251.096 C 242 249.100, 242.505 249, 252.620 249 L 263.240 249 262.798 255.117 C 262.402 260.596, 262.506 261.040, 263.798 259.367 C 265.108 257.670, 265.187 257.853, 264.663 261.374 C 263.750 267.502, 261.557 269.208, 255.025 268.870 C 251.986 268.713, 248.859 268.115, 248.077 267.542 C 246.907 266.686, 246.788 266.945, 247.407 269 C 249.275 275.192, 249.287 276.317, 247.498 277.625 C 245.797 278.869, 245.825 279.037, 248.026 280.820 C 249.304 281.854, 250.419 283.653, 250.505 284.817 C 250.661 286.932, 250.659 286.932, 248.427 284.700 C 246.254 282.527, 237.259 279.408, 236.205 280.462 C 235.916 280.751, 236.412 281.798, 237.308 282.788 C 239.394 285.092, 239.804 290.327, 238.063 292.425 C 236.202 294.667, 235.868 293.948, 236.976 290.085 C 237.712 287.516, 237.546 286.237, 236.210 284.198 L 234.503 281.593 234.002 284.464 C 233.726 286.043, 232.923 287.527, 232.219 287.761 C 231.514 287.996, 231.064 287.669, 231.219 287.035 C 231.499 285.889, 225.316 283.059, 221.500 282.587 C 220.400 282.451, 218.847 281.181, 218.048 279.765 C 216.839 277.621, 216.818 276.924, 217.921 275.595 C 219.778 273.358, 222.839 273.656, 227.500 276.526 C 229.700 277.881, 232.876 278.992, 234.557 278.995 C 238.056 279.001, 243.751 274.786, 245.124 271.174 C 246.523 267.494, 245.127 266.747, 242.477 269.757 C 241.150 271.266, 240.049 271.938, 240.032 271.250 C 240.014 270.558, 238.761 270, 237.223 270 C 235.695 270, 233.445 269.299, 232.223 268.443 C 230.513 267.246, 229.989 267.188, 229.952 268.193 C 229.926 268.912, 229.137 267.931, 228.199 266.013 C 227.261 264.095, 225.654 262.365, 224.628 262.167 C 223.473 261.944, 223.020 262.224, 223.439 262.901 C 223.913 263.668, 223.391 263.719, 221.684 263.070 C 220.056 262.451, 218.882 262.518, 218.127 263.273 C 217.291 264.109, 217 264.090, 217 263.200 C 217 262.540, 216.593 262, 216.095 262 C 215.597 262, 215.363 263.800, 215.575 266 C 215.903 269.397, 215.675 270, 214.062 270 C 210.370 270, 208.960 271.057, 210.017 273.032 C 210.557 274.040, 211.898 275.150, 212.999 275.500 C 216.742 276.688, 215.309 286.825, 210.683 291.891 L 208.500 294.282 211.425 293.578 C 214.141 292.924, 214.248 293.003, 212.925 294.687 C 212.141 295.684, 210.825 297.048, 210 297.718 C 208.717 298.760, 208.826 298.941, 210.750 298.968 C 212.764 298.997, 213 299.500, 213 303.768 C 213 309.326, 215.996 314.468, 220.887 317.307 C 224.563 319.440, 224.560 319.452, 222.022 313.859 C 219.295 307.849, 219.481 305.547, 222.250 311.034 C 224.340 315.174, 230.395 319.936, 233.629 319.984 C 234.736 320, 236.489 316.459, 237.334 312.500 C 237.569 311.400, 237.598 312.413, 237.400 314.750 C 237.201 317.087, 237.306 319, 237.633 319 C 240.057 319, 246.936 313.554, 250.265 309 C 252.476 305.975, 254.010 304.288, 253.674 305.250 C 251.831 310.528, 261.165 302.316, 264.410 295.805 C 265.834 292.946, 267.053 289.683, 267.118 288.554 C 267.200 287.142, 267.464 287.437, 267.965 289.500 L 268.694 292.500 270.446 288.545 C 272.371 284.200, 272.238 276.294, 270.029 263.737 C 269.150 258.740, 269.124 255.651, 269.927 251.904 C 270.525 249.115, 270.797 246.481, 270.531 246.050 C 269.648 244.621, 273.751 241.873, 276.902 241.784 C 280.638 241.677, 284 244.446, 284 247.629 C 284 248.904, 282.666 253.306, 281.036 257.410 C 278.104 264.791, 276.938 271.271, 278.298 272.631 C 278.684 273.017, 279 272.683, 279 271.888 C 279 271.093, 281.538 266.180, 284.639 260.971 C 290.589 250.978, 292.152 245.189, 290.058 240.896 C 288.950 238.623, 288.970 238.600, 290.445 240.441 C 291.300 241.509, 292 243.196, 292 244.191 C 292 247.114, 293.642 246.275, 295.474 242.414 C 296.723 239.782, 297.031 237.322, 296.633 233.164 C 296.336 230.049, 296.051 227.050, 296.001 226.500 C 295.951 225.950, 296.214 221.872, 296.585 217.438 C 297.170 210.450, 296.975 208.731, 295.118 204.534 C 292.784 199.257, 291.081 198.925, 292.884 204.098 C 294.750 209.449, 294.130 210.767, 291.884 206.227 C 289.229 200.865, 283.983 196.487, 277.717 194.406 C 271.717 192.413, 270.758 193.069, 275.441 195.964 C 277.391 197.169, 280.416 200.145, 282.163 202.578 C 285.752 207.575, 286.376 207.972, 285.577 204.750 C 285.219 203.306, 285.537 203.574, 286.465 205.500 C 287.260 207.150, 287.912 210.300, 287.916 212.500 L 287.922 216.500 286.611 213.500 C 283.890 207.271, 279.725 203.741, 269.385 198.900 C 263.807 196.289, 257.614 192.722, 255.622 190.973 C 253.630 189.224, 252 188.124, 252 188.528 C 252 190.022, 256.199 196, 257.248 196 C 257.845 196, 258.077 196.256, 257.764 196.570 C 256.924 197.410, 249.937 193.549, 246.635 190.421 C 245.060 188.928, 242.932 185.860, 241.907 183.603 C 240.169 179.776, 240.042 179.688, 240.022 182.300 M 340.623 185.449 L 341.263 190.898 336.681 193.124 C 334.161 194.349, 332.291 195.662, 332.527 196.043 C 332.762 196.425, 335.165 197.030, 337.867 197.388 L 342.779 198.040 343.682 203.770 L 344.585 209.500 347.316 204.237 C 349.582 199.869, 350.426 199.050, 352.274 199.421 C 358.256 200.623, 361 200.889, 361 200.267 C 361 199.892, 359.388 197.933, 357.417 195.915 L 353.834 192.246 355.987 188.026 C 357.171 185.705, 357.938 183.604, 357.691 183.357 C 357.444 183.110, 355.155 183.922, 352.604 185.162 L 347.966 187.415 344.910 183.707 C 343.230 181.668, 341.433 180, 340.918 180 C 340.373 180, 340.250 182.276, 340.623 185.449 M 131.572 211.302 C 128.529 216.479, 129.060 216.341, 120.142 214.275 C 118.082 213.798, 117.913 213.967, 118.801 215.615 C 119.359 216.652, 120.979 218.588, 122.400 219.917 L 124.984 222.334 122.492 226.793 C 121.121 229.245, 120 231.654, 120 232.145 C 120 232.636, 122.138 231.940, 124.750 230.598 L 129.500 228.157 133.862 232.329 L 138.224 236.500 137.564 230.943 L 136.904 225.387 141.990 223.004 C 147.528 220.411, 147.242 219.677, 140.250 218.525 C 136.324 217.878, 135.992 217.583, 135.900 214.662 C 135.845 212.923, 135.484 210.375, 135.098 209 C 134.423 206.598, 134.285 206.688, 131.572 211.302 M 365 210.918 C 365 216.844, 364.273 217.837, 359.399 218.567 C 356.966 218.932, 354.745 219.603, 354.464 220.058 C 354.183 220.513, 356.044 221.811, 358.600 222.941 L 363.248 224.997 362.792 230.499 C 362.541 233.524, 362.672 236, 363.084 236 C 363.495 236, 365.233 234.231, 366.945 232.069 L 370.058 228.138 374.612 230.153 C 377.117 231.261, 379.374 231.959, 379.629 231.704 C 379.883 231.450, 379.081 229.161, 377.845 226.618 L 375.599 221.995 379.550 217.876 L 383.500 213.757 379.500 214.447 C 377.300 214.826, 374.600 215.351, 373.500 215.612 C 371.943 215.983, 370.951 215.081, 369.021 211.544 C 367.657 209.045, 366.195 207, 365.771 207 C 365.347 207, 365 208.763, 365 210.918 M 115 262.500 C 115 263.844, 118.930 263.996, 147.750 263.764 C 168.741 263.595, 180.500 263.141, 180.500 262.500 C 180.500 261.859, 168.741 261.405, 147.750 261.236 C 118.930 261.004, 115 261.156, 115 262.500 M 319.250 262.250 C 319.569 263.209, 327.279 263.561, 352.333 263.764 C 380.951 263.995, 385 263.840, 385 262.514 C 385 261.193, 380.790 261, 351.917 261 C 325.895 261, 318.922 261.267, 319.250 262.250 M 76.694 276.639 C 76.342 276.991, 76.294 277.666, 76.586 278.139 C 76.879 278.613, 97.341 279, 122.059 279 C 161.340 279, 167 278.811, 167 277.500 C 167 276.189, 161.352 276, 122.167 276 C 97.508 276, 77.046 276.288, 76.694 276.639 M 333 277.500 C 333 278.811, 338.667 279, 378 279 C 417.333 279, 423 278.811, 423 277.500 C 423 276.189, 417.333 276, 378 276 C 338.667 276, 333 276.189, 333 277.500 M 102.250 293.250 C 102.858 295.074, 184.142 295.074, 184.750 293.250 C 185.079 292.263, 176.389 292, 143.500 292 C 110.611 292, 101.921 292.263, 102.250 293.250 M 315.250 293.250 C 315.574 294.223, 324.722 294.500, 356.500 294.500 C 388.278 294.500, 397.426 294.223, 397.750 293.250 C 398.079 292.263, 389.389 292, 356.500 292 C 323.611 292, 314.921 292.263, 315.250 293.250 M 115 308.500 C 115 309.845, 118.464 309.998, 143.501 309.765 C 161.445 309.598, 172.094 309.130, 172.251 308.500 C 172.411 307.855, 162.285 307.406, 143.750 307.235 C 118.490 307.002, 115 307.155, 115 308.500 M 327.694 307.639 C 325.743 309.590, 330.756 310, 356.559 310 C 381.173 310, 385 309.798, 385 308.500 C 385 307.202, 381.185 307, 356.667 307 C 341.083 307, 328.046 307.288, 327.694 307.639 M 217 332.092 C 209.575 332.532, 196.750 333.612, 188.500 334.492 C 172.546 336.194, 126.908 342.758, 126.217 343.450 C 125.990 343.677, 128.099 347.277, 130.902 351.450 C 133.706 355.624, 136 359.336, 136 359.700 C 136 360.064, 133.711 364.816, 130.914 370.262 C 128.117 375.707, 125.980 380.305, 126.164 380.480 C 126.349 380.655, 133.250 379.490, 141.500 377.890 C 184.020 369.647, 217.448 366.005, 250.500 366.014 C 282.272 366.024, 308.917 368.731, 349.271 376.051 C 361.245 378.223, 371.727 380, 372.565 380 C 373.690 380, 372.770 377.434, 369.044 370.181 C 366.270 364.780, 364 360.091, 364 359.761 C 364 359.430, 366.254 355.888, 369.009 351.889 C 371.764 347.890, 373.676 344.290, 373.259 343.888 C 372.349 343.014, 328.397 336.728, 308 334.555 C 275.264 331.068, 247.157 330.307, 217 332.092 M 222 344.762 L 219.500 348.500 219.187 345.250 C 218.993 343.237, 218.327 342, 217.437 342 C 215.870 342, 215.611 345.013, 216.642 351.250 C 217.426 355.994, 219.995 356.376, 220.011 351.750 L 220.022 348.500 222.584 351.750 C 223.992 353.538, 225.787 355, 226.572 355 C 228.630 355, 228.344 353.968, 225.450 350.947 L 222.899 348.285 225.048 344.643 C 228.006 339.629, 225.364 339.733, 222 344.762 M 235 346.217 C 235 352.258, 236.148 354, 240.129 354 C 244.191 354, 245.768 351.815, 245.622 346.386 C 245.439 339.628, 243 339.191, 243 345.917 C 243 350.642, 242.828 351, 240.555 351 C 238.354 351, 238.079 350.534, 237.805 346.328 C 237.357 339.461, 235 339.367, 235 346.217 M 249.263 347.509 C 249.065 352.920, 249.295 354, 250.644 354 C 251.933 354, 252.147 353.292, 251.697 350.518 C 250.886 345.525, 252.505 345.295, 255.595 349.964 C 259.579 355.984, 261 355.314, 261 347.417 C 261 342.592, 260.666 340.946, 259.750 341.255 C 259.063 341.487, 258.483 342.955, 258.461 344.518 C 258.406 348.601, 256.657 348.602, 254.710 344.519 C 253.722 342.445, 252.307 341.004, 251.266 341.009 C 249.785 341.017, 249.462 342.065, 249.263 347.509 M 265 344.375 C 265 346.231, 264.719 349.156, 264.375 350.875 C 263.756 353.971, 263.788 354, 267.875 354 C 270.144 354, 272 353.550, 272 353 C 272 352.450, 271.100 352, 270 352 C 268.242 352, 268 351.333, 268 346.500 C 268 342.278, 267.652 341, 266.500 341 C 265.463 341, 265 342.042, 265 344.375 M 274.991 342.750 C 274.987 343.712, 274.699 346.863, 274.352 349.750 C 273.832 354.082, 273.991 355, 275.260 355 C 276.865 355, 277.829 349.360, 277.184 343.750 C 276.838 340.751, 275.005 339.914, 274.991 342.750 M 209.958 346.250 L 209.917 350.500 206.602 346.750 C 203.231 342.935, 199.224 341.536, 200.393 344.582 C 200.727 345.452, 201 348.377, 201 351.082 C 201 354.787, 201.370 356, 202.500 356 C 203.548 356, 204 354.944, 204 352.500 C 204 348.213, 204.951 348.090, 207.842 352 C 209.062 353.650, 210.904 355, 211.935 355 C 213.547 355, 213.744 354.405, 213.343 350.750 C 212.614 344.120, 212.042 342, 210.981 342 C 210.441 342, 209.981 343.913, 209.958 346.250 M 281.484 346.917 C 281.161 349.438, 280.730 352.314, 280.526 353.308 C 280.270 354.560, 280.671 355.019, 281.828 354.800 C 282.899 354.597, 283.613 353.310, 283.815 351.223 C 284.164 347.601, 286 347.781, 286 351.437 C 286 352.712, 286.675 354.315, 287.500 355 C 288.763 356.048, 289.239 355.673, 290.513 352.622 C 292.438 348.017, 293.921 347.952, 293.309 352.500 C 292.941 355.223, 293.188 356, 294.418 356 C 295.463 356, 296.020 355.067, 296.058 353.250 C 296.089 351.738, 296.293 348.813, 296.510 346.750 C 296.838 343.630, 296.595 343, 295.061 343 C 293.843 343, 292.674 344.359, 291.617 347 C 289.913 351.257, 288.296 352.115, 287.375 349.250 C 284.634 340.722, 282.393 339.834, 281.484 346.917 M 299.637 349.195 C 299.254 352.860, 299.394 355.794, 299.978 356.378 C 301.490 357.890, 301.843 356.987, 302.588 349.717 C 303.162 344.115, 303.028 343, 301.781 343 C 300.684 343, 300.112 344.652, 299.637 349.195 M 193.654 346.980 C 192.991 350.296, 190.564 350.266, 189.692 346.931 C 189.414 345.869, 188.418 345, 187.479 345 C 185.940 345, 185.916 345.224, 187.232 347.250 C 189.349 350.507, 190.777 353.252, 191.396 355.250 C 191.694 356.212, 192.584 357, 193.375 357 C 194.251 357, 194.635 356.316, 194.359 355.250 C 194.109 354.288, 194.601 351.531, 195.452 349.124 C 197.327 343.823, 197.321 344, 195.625 344 C 194.869 344, 193.982 345.341, 193.654 346.980 M 307.352 345.789 C 308.873 347.509, 309.080 348.785, 308.508 352.941 C 307.935 357.108, 308.081 358, 309.334 358 C 310.429 358, 311.049 356.456, 311.543 352.500 C 312.004 348.812, 312.687 347, 313.615 347 C 314.377 347, 315 346.550, 315 346 C 315 345.450, 314.381 345, 313.625 345 C 312.869 345, 310.731 344.706, 308.875 344.347 C 305.513 343.697, 305.507 343.703, 307.352 345.789 M 108.500 346.738 C 105.200 347.585, 102.324 348.430, 102.108 348.615 C 101.892 348.800, 104.112 352.602, 107.042 357.064 L 112.368 365.177 107.184 375.600 C 104.333 381.333, 102 386.199, 102 386.412 C 102 386.835, 116.006 383.360, 116.454 382.827 C 117.631 381.424, 127 363.069, 127 362.166 C 127 360.370, 116.642 344.988, 115.509 345.099 C 114.954 345.154, 111.800 345.891, 108.500 346.738 M 181.351 345.780 C 180.719 346.176, 180.044 347.625, 179.851 349 C 179.371 352.417, 174.660 352.625, 174.180 349.250 C 174.005 348.012, 173.197 347, 172.385 347 C 171.238 347, 171.046 347.834, 171.522 350.750 C 172.872 359.011, 173.207 360, 174.659 360 C 175.805 360, 176.004 359.293, 175.500 357 C 174.997 354.709, 175.195 354, 176.339 354 C 177.162 354, 178.515 353.740, 179.344 353.421 C 180.426 353.006, 180.943 353.620, 181.176 355.594 C 181.661 359.714, 184.013 359.917, 183.942 355.833 C 183.839 349.867, 182.586 345.006, 181.351 345.780 M 318.061 352.097 C 317.401 355.451, 317.005 358.316, 317.181 358.465 C 317.356 358.613, 319.188 359.040, 321.250 359.413 C 325.468 360.175, 326.484 358.589, 322.429 357.572 C 319.425 356.818, 319.681 354.644, 322.828 354.180 C 325.597 353.773, 325.677 352, 322.927 352 C 321.489 352, 320.958 351.464, 321.195 350.250 C 321.441 348.991, 322.303 348.590, 324.269 348.822 C 327.553 349.208, 327.932 347.483, 324.750 346.630 C 319.839 345.314, 319.310 345.747, 318.061 352.097 M 378.081 353.250 C 375.299 357.238, 373.017 361.119, 373.011 361.876 C 373.003 362.911, 382.058 380.885, 383.566 382.827 C 383.995 383.378, 398 386.828, 398 386.382 C 398 386.152, 395.750 381.480, 393 376 C 390.250 370.520, 388 365.641, 388 365.157 C 388 364.673, 390.290 360.804, 393.088 356.560 C 395.887 352.316, 398.024 348.706, 397.838 348.540 C 397.270 348.030, 387.024 346, 385.021 346 C 383.818 346, 381.317 348.614, 378.081 353.250 M 161.582 348.868 C 159.978 349.216, 158.462 350.110, 158.214 350.855 C 157.892 351.822, 158.347 352.025, 159.801 351.563 C 162.004 350.864, 162.362 351.503, 163.566 358.294 C 163.951 360.463, 164.723 361.918, 165.369 361.692 C 166.623 361.255, 166.663 359.344, 165.534 353.750 C 164.850 350.362, 164.981 350, 166.889 350 C 168.050 350, 169 349.550, 169 349 C 169 347.917, 166.205 347.868, 161.582 348.868 M 329.017 353.920 C 328.302 357.291, 327.893 360.204, 328.108 360.392 C 328.324 360.581, 330.188 361.040, 332.250 361.413 C 335.427 361.987, 336.382 361.709, 338.500 359.591 C 339.875 358.216, 341 356.220, 341 355.156 C 341 352.059, 337.791 348.986, 333.909 348.365 L 330.318 347.790 329.017 353.920 M 331.986 352.680 C 331.979 353.681, 331.692 355.548, 331.349 356.830 C 330.793 358.907, 331.026 359.124, 333.512 358.830 C 337.040 358.412, 338.927 355.698, 337.393 353.250 C 335.828 350.753, 332.004 350.350, 331.986 352.680" stroke="none" fill="#c7985a" fill-rule="evenodd"/></svg>